<svg fill="none" height="126" viewBox="0 0 127 126" width="127" xmlns="http://www.w3.org/2000/svg" xmlns:xlink="http://www.w3.org/1999/xlink"><linearGradient id="a" gradientUnits="userSpaceOnUse" x1="114.5" x2="0" y1="8.5" y2="61.7885"><stop offset="0" stop-color="#f8bd35"/><stop offset="1" stop-color="#f77f14"/></linearGradient><path d="m61.7885 123.577c34.1248 0 61.7885-27.6637 61.7885-61.7885 0-34.1249-27.6637-61.7885-61.7885-61.7885-34.1249 0-61.7885 27.6636-61.7885 61.7885 0 34.1248 27.6636 61.7885 61.7885 61.7885z" fill="#fff"/><path clip-rule="evenodd" d="m61.7885 118.577c31.3634 0 56.7885-25.4251 56.7885-56.7885s-25.4251-56.7885-56.7885-56.7885-56.7885 25.4251-56.7885 56.7885 25.4251 56.7885 56.7885 56.7885zm61.7885-56.7885c0 34.1248-27.6637 61.7885-61.7885 61.7885-34.1249 0-61.7885-27.6637-61.7885-61.7885 0-34.1249 27.6636-61.7885 61.7885-61.7885 34.1248 0 61.7885 27.6636 61.7885 61.7885z" fill="url(#a)" fill-rule="evenodd"/><g fill="#f79314"><path d="m60.9921 26.1082h-5.572v1.582h5.572zm-10.752 5.642h.882v.8261h-.882zm0-1.9179h.882v.84h-.882zm3.024.84h-.924v-.84h.924zm0 1.904h-.924v-.8261h.924zm1.582 3.4159v-1.4419h-2.352v-.8261h2.086v-5.054h-2.058v-.756h2.226v-1.442h-2.226v-1.316h-1.568v1.316h-2.282v1.442h2.282v.756h-1.988v5.054h1.988v.8261h-2.478v1.4419h2.478v2.2121h1.54v-2.2121zm6.832 1.5821c-.238-1.2461-.868-3.052-1.61-4.452l-1.414.56c.336.6719.644 1.456.896 2.2259l-2.24.1541c.35-1.2741.742-2.9261 1.036-4.466h3.122v-1.568h-6.608v1.568h1.666c-.196 1.5119-.518 3.2899-.854 4.5779l-1.176.0701.308 1.6239c1.442-.126 3.318-.2939 5.18-.4899.07.2939.112.5599.154.8119z"/><path d="m68.9161 35.3202v-.84h1.288v.84zm1.288-2.7579v.84h-1.288v-.84zm-.042-4.9141c-.07.504-.224 1.2181-.364 1.7081l.714.154h-2.002l.63-.154c-.028-.4621-.154-1.1761-.364-1.7081zm-4.676.9941h-.924v-1.5121h.924zm-.924 5.894v-1.694h.924v1.5259zm.924-3.038h-.924v-1.5121h.924zm8.596-.182c-.14.532-.308 1.05-.504 1.54-.056-.63-.098-1.316-.126-2.058h2.1v-1.288h-2.156c-.028-.9381-.042-1.9181-.042-2.9541.462.658.91 1.484 1.106 2.044l1.148-.644c-.238-.63-.784-1.54-1.358-2.226l-.896.476v-1.05h-1.456c.014 1.5541.042 3.024.084 4.3541h-1.12c.154-.448.35-1.0781.56-1.6801l-.952-.182h1.204v-1.218h-1.428v-1.26h-1.414v1.26h-1.372v-.7559h-4.802v1.4559h.546v7.6301c-.294.0559-.574.0979-.826.1259l.28 1.526c.84-.168 1.834-.3779 2.828-.5879v2.394h1.386v-11.0881h.532v.518h1.106l-.812.196c.168.518.28 1.2041.308 1.6661h-.882v1.288h4.914c.07 1.61.196 3.01.378 4.144-.28.392-.588.7559-.924 1.078v-4.6061h-3.85v5.852h1.274v-.812h2.1c-.308.252-.644.4901-.994.7001.294.2659.77.812.952 1.092.672-.462 1.288-1.0081 1.834-1.6381.336 1.022.798 1.5821 1.428 1.5961.476 0 1.134-.49 1.484-2.7581-.238-.154-.84-.588-1.078-.9239-.056 1.106-.168 1.75-.336 1.75-.168-.014-.322-.3921-.448-1.064.658-1.0501 1.176-2.254 1.554-3.5981z"/><path d="m20.9661 43.3962.182 1.918c1.624-.35 4.48-.658 5.796-.7979-.952.714-2.086 2.3099-2.086 4.3259 0 3.038 2.772 4.6061 5.712 4.8021l.658-1.9181c-2.38-.1259-4.536-.9519-4.536-3.2619 0-1.666 1.274-3.4721 2.968-3.9201.742-.182 1.946-.182 2.702-.196l-.014-1.792c-.994.042-2.52.126-3.962.252-2.562.21-4.872.4201-6.048.5181-.266.0279-.812.0559-1.372.0699zm9.394 2.324-1.036.434c.448.63.742 1.176 1.092 1.9461l1.064-.476c-.266-.546-.77-1.4001-1.12-1.9041zm1.568-.6439-1.022.4759c.448.616.77 1.134 1.148 1.89l1.05-.504c-.294-.5459-.826-1.372-1.176-1.8619z"/><path d="m36.0441 45.8883.098 1.6519c2.114.126 4.368.126 6.09.014.224.476.49.9661.784 1.4561-.42-.042-1.176-.1121-1.764-.1681l-.14 1.33c1.022.112 2.534.2941 3.318.4481l.854-1.2881c-.252-.238-.448-.4479-.63-.714-.252-.364-.49-.798-.728-1.246.84-.1119 1.596-.266 2.24-.434l-.28-1.652c-.686.182-1.526.42-2.674.56-.084-.224-.168-.434-.238-.63-.07-.2099-.14-.434-.21-.658.924-.126 1.806-.308 2.576-.518l-.224-1.61c-.896.28-1.792.476-2.758.602-.098-.476-.182-.966-.252-1.4699l-1.876.2099c.168.49.308.938.448 1.386-1.288.042-2.716-.014-4.382-.21l.098 1.61c1.764.168 3.402.196 4.718.126.084.2381.168.504.28.8261.056.1539.112.3219.182.4899-1.554.098-3.444.084-5.53-.1119zm2.688 3.2479-1.736-.336c-.322.672-.63 1.358-.602 2.254.028 2.002 1.764 2.828 4.564 2.828 1.148 0 2.422-.098 3.402-.266l.098-1.778c-.994.196-2.184.308-3.514.308-1.848 0-2.828-.42-2.828-1.4559 0-.602.28-1.0921.616-1.5541z"/><path d="m54.6081 41.7302-1.932-.196c-.028.728-.182 1.568-.378 2.338-.434.042-.854.056-1.274.056-.518 0-1.26-.028-1.862-.098l.126 1.624c.602.042 1.176.0561 1.75.0561.238 0 .476 0 .728-.014-.616 1.5119-1.75 3.5699-2.856 4.9419l1.694.868c1.134-1.582 2.324-4.0319 2.996-5.992.938-.14 1.806-.3219 2.45-.49l-.056-1.624c-.546.168-1.204.322-1.89.448.21-.756.392-1.47.504-1.918zm-.728 9.688c0-.49.518-.854 1.33-.854.392 0 .77.0561 1.134.1401v.2799c0 .77-.294 1.302-1.26 1.302-.77 0-1.204-.35-1.204-.868zm4.004-5.334h-1.75c.028.854.098 2.1.154 3.136-.322-.028-.63-.056-.966-.056-1.946 0-3.094 1.0501-3.094 2.4221 0 1.54 1.372 2.3099 3.108 2.3099 1.988 0 2.702-1.0079 2.702-2.3099 0-.042 0-.0981 0-.1401.77.462 1.4 1.0501 1.89 1.4981l.938-1.4981c-.714-.644-1.694-1.344-2.898-1.792-.028-.7-.07-1.372-.084-1.778-.014-.6159-.042-1.204 0-1.792zm2.408.7421.994-1.4701c-.714-.518-2.45-1.47-3.458-1.904l-.896 1.386c.952.434 2.548 1.3441 3.36 1.9881z"/><path d="m72.8921 41.8702h-2.03c.056.224.126.616.154.9661.028.3779.042 1.1059.056 1.8899-.532.014-1.078.028-1.582.028-.742 0-1.428-.056-2.114-.1539v1.778c.686.0279 1.554.0699 2.156.0699.518 0 1.036-.014 1.568-.028v.504c0 2.366-.224 3.612-1.302 4.732-.392.4341-1.092.882-1.624 1.12l1.61 1.274c2.8-1.778 3.052-3.8079 3.052-7.112 0-.1399 0-.35 0-.5879.784-.042 1.512-.0981 2.072-.1681l.014-1.82c-.574.112-1.316.1961-2.1.2521 0-.7701 0-1.4981 0-1.7921.014-.308.028-.644.07-.952zm-6.958.238-2.072-.21c-.014.35-.028.826-.098 1.218-.168 1.134-.448 3.29-.448 5.586 0 1.736.49 3.6961.798 4.5361l1.554-.1541c-.014-.1959-.028-.434-.028-.5739 0-.168.028-.4761.084-.6861.168-.798.546-2.212.952-3.416l-.868-.56c-.238.518-.49 1.19-.672 1.624-.378-1.736.112-4.6759.462-6.2299.07-.2941.21-.798.336-1.1341z"/><path d="m79.8081 42.9062c0 .154-.028.546-.056 1.078-.602.084-1.218.1541-1.624.1821-.49.028-.812.0279-1.218.0139l.182 1.792c.784-.1119 1.862-.252 2.548-.336-.014.336-.042.672-.07.994-.798 1.176-2.198 3.024-2.996 4.004l1.106 1.526c.49-.658 1.176-1.68 1.764-2.562-.014 1.1761-.028 1.9881-.056 3.08 0 .2241-.014.7141-.042 1.0361h1.932c-.042-.322-.084-.826-.098-1.0781-.084-1.316-.084-2.4919-.084-3.6399 0-.3641.014-.7421.028-1.1341 1.148-1.26 2.66-2.548 3.696-2.548.588 0 .952.35.952 1.0361 0 1.274-.504 3.332-.504 4.844 0 1.3579.7 2.114 1.75 2.114 1.134 0 1.988-.4341 2.632-1.0361l-.224-1.9739c-.644.6439-1.302 1.0079-1.82 1.0079-.35 0-.532-.2659-.532-.6299 0-1.442.462-3.5.462-4.9561 0-1.176-.686-2.072-2.198-2.072-1.358 0-2.968 1.134-4.074 2.1.014-.112.014-.21.028-.3079.238-.364.518-.826.714-1.0781l-.518-.6719c.098-.868.224-1.5821.308-1.9741l-2.044-.07c.07.434.056.854.056 1.26z"/><path d="m96.2441 51.3342c0-.532.546-.854 1.33-.854.392 0 .756.0561 1.134.1681v.2379c0 .826-.294 1.274-1.162 1.274-.742 0-1.302-.252-1.302-.826zm4.1579-9.128h-2.0019c.056.266.098.7.098.924.014.294.014.854.014 1.54-.322.014-.658.014-.98.014-.84 0-1.652-.0419-2.45-.112l.014 1.666c.812.056 1.624.0841 2.436.0841.322 0 .658-.014.994-.014.014.9939.07 2.0159.112 2.8699-.294-.042-.602-.056-.924-.056-1.904 0-3.108.9801-3.108 2.4081 0 1.4699 1.204 2.282 3.136 2.282 1.904 0 2.6599-.952 2.7299-2.296.56.378 1.134.854 1.722 1.4l.938-1.4701c-.658-.602-1.54-1.33-2.716-1.806-.056-.952-.126-2.072-.154-3.43.77-.056 1.512-.14 2.198-.238v-1.722c-.686.14-1.428.238-2.184.308 0-.616.028-1.148.042-1.456.014-.294.042-.63.084-.896zm-6.8319.14-1.932-.154c-.014.448-.084.98-.126 1.372-.168 1.0781-.588 3.724-.588 5.8381 0 1.8899.266 3.5.56 4.4659l1.568-.1119c-.014-.196-.014-.4341-.014-.5881-.014-.14.028-.448.07-.6439.154-.7701.616-2.184 1.008-3.3461l-.868-.6719c-.196.462-.434.938-.616 1.4279-.042-.28-.056-.6439-.056-.9099 0-1.4.448-4.4801.658-5.4181.056-.252.224-.966.336-1.26zm7.9799-.7-.952.2941c.28.5599.518 1.3299.714 1.9319l.98-.322c-.168-.546-.476-1.358-.742-1.904zm1.442-.448-.952.2941c.28.5599.546 1.316.756 1.9179l.966-.308c-.182-.532-.504-1.3579-.77-1.904z"/><path d="m19.904 70.3116c2.496-1.848 4.632-4.008 6-5.952 1.392 1.944 3.696 4.128 6.192 5.952zm7.512 7.776h6.72v-2.496h-6.72v-2.76h5.616v-1.872c.864.6 1.728 1.128 2.592 1.608.528-.888 1.152-1.8 1.896-2.568-3.792-1.608-7.704-4.752-10.272-8.4h-2.952c-1.776 2.928-5.64 6.624-9.744 8.688.648.6 1.44 1.632 1.8 2.304.912-.504 1.8-1.056 2.664-1.656v1.896h5.424v2.76h-6.648v2.496h6.648v2.856h-8.568v2.568h20.424v-2.568h-8.88z"/><path d="m57.632 70.2636h-4.752v-1.464h4.752zm0 3.432h-4.752v-1.464h4.752zm0 3.504h-4.752v-1.488h4.752zm-7.32-10.536v12.648h10.008v-12.648h-4.248c.192-.504.384-1.056.576-1.632h4.152v-2.424h-11.208v2.424h4.032c-.096.528-.192 1.104-.288 1.632zm-8.904-.792h5.736v1.656h2.376v-3.864h-3.912v-1.944h-2.664v1.944h-3.84v3.864h2.304zm4.32 14.616h-2.904v-2.208h2.904zm-2.856-4.416c.696-.456 1.368-.984 2.016-1.56.72.552 1.44 1.08 2.04 1.56zm2.88-6.384c-.336.6-.72 1.176-1.176 1.704l-1.656-1.08c.168-.216.336-.408.504-.624zm2.4 7.392.048.048 1.608-1.992c-.792-.672-1.968-1.536-3.264-2.4 1.008-1.248 1.824-2.688 2.376-4.32l-1.608-.744-.432.12h-2.232c.216-.36.384-.72.552-1.104l-2.328-.576c-.864 2.016-2.52 3.84-4.392 5.016.528.336 1.416 1.2 1.8 1.656.36-.24.696-.528 1.032-.816l1.584 1.104c-1.32 1.104-2.832 1.968-4.416 2.52.504.456 1.128 1.416 1.44 2.04l.504-.216v6.216h2.4v-.96h5.328c.48.456 1.008.984 1.32 1.368 1.752-.696 3.864-1.968 5.112-3.192l-2.304-1.44c-.864.888-2.544 1.992-4.128 2.64zm7.488 3.744c1.296.96 2.976 2.376 3.744 3.288l2.208-1.464c-.864-.912-2.616-2.232-3.888-3.12z"/><path d="m80.288 70.0476c-.48 1.296-1.104 2.472-1.896 3.504-.84-1.032-1.512-2.208-2.016-3.504zm1.656-2.616-.528.072h-7.584v-2.232h10.464v-2.664h-13.2v5.568c0 3.024-.216 7.2-2.472 10.056.672.264 1.896 1.056 2.4 1.536 1.944-2.544 2.568-6.24 2.76-9.36.672 1.968 1.56 3.672 2.688 5.136-1.2 1.008-2.616 1.8-4.152 2.304.552.552 1.272 1.68 1.608 2.4 1.68-.672 3.192-1.536 4.512-2.64 1.392 1.176 3.024 2.088 4.992 2.712.384-.768 1.2-1.92 1.824-2.472-1.896-.504-3.48-1.272-4.824-2.304 1.536-1.944 2.688-4.44 3.336-7.536zm-12.768-1.536c-.792-1.128-2.52-2.64-3.912-3.672l-2.136 1.704c1.392 1.08 3.072 2.712 3.768 3.84zm-.624 5.088h-5.424v2.616h2.64v5.064c-1.032.816-2.208 1.632-3.168 2.208l1.392 2.976c1.272-1.008 2.304-1.944 3.336-2.88 1.56 1.872 3.552 2.544 6.528 2.664 2.88.12 7.704.072 10.608-.072.12-.816.552-2.208.888-2.88-3.192.24-8.64.312-11.448.192-2.52-.096-4.344-.744-5.352-2.352z"/><path d="m96.368 76.1436v4.8h-3.24l1.968-.84c-.36-1.104-1.296-2.736-2.208-3.96zm-2.712-7.32c1.728-1.44 3.216-3 4.248-4.44 1.056 1.44 2.64 3 4.416 4.44zm9.048 7.32c-.528 1.272-1.488 3.024-2.28 4.152l1.56.648h-2.616v-4.8h7.392v-2.448h-7.392v-2.376h4.584v-1.248c1.2.864 2.448 1.656 3.648 2.28.528-.888 1.176-1.848 1.896-2.568-3.792-1.536-7.656-4.56-10.248-8.184h-2.952c-1.776 2.88-5.616 6.48-9.696 8.472.624.6 1.416 1.632 1.776 2.304 1.224-.648 2.448-1.416 3.576-2.232v1.176h4.416v2.376h-7.296v2.448h3.672l-2.184.936c.84 1.176 1.632 2.784 1.992 3.864h-4.68v2.448h20.304v-2.448h-5.424c.84-1.008 1.776-2.472 2.688-3.792z"/></g><path d="m107.859 59.1512c-.15 0-.259-.0426-.328-.128-.064-.0853-.096-.2026-.096-.352 0-.144.032-.2586.096-.344.069-.0853.178-.128.328-.128.154 0 .266.0427.336.128.069.0854.104.2.104.344 0 .1494-.035.2667-.104.352-.07.0854-.182.128-.336.128zm-2.424 4.848-.368-.368 2.448-2.48-2.456-2.472.368-.376 2.464 2.472 2.472-2.464.368.368-2.464 2.472 2.448 2.488-.368.368-2.456-2.48zm-.056-2.36c-.128 0-.232-.0346-.312-.104-.08-.0746-.12-.1946-.12-.36 0-.1653.04-.2853.12-.36.08-.0746.184-.112.312-.112.133 0 .24.0374.32.112.08.0747.12.1947.12.36 0 .1654-.04.2854-.12.36-.08.0694-.187.104-.32.104zm5.024 0c-.128 0-.232-.0346-.312-.104-.08-.0746-.12-.1946-.12-.36 0-.1653.04-.2853.12-.36.08-.0746.184-.112.312-.112.133 0 .24.0374.32.112.08.0747.12.1947.12.36 0 .1654-.04.2854-.12.36-.08.0694-.187.104-.32.104zm-2.544 2.48c-.15 0-.259-.0426-.328-.128-.064-.0853-.096-.2026-.096-.352 0-.144.032-.2586.096-.344.069-.0853.178-.128.328-.128.154 0 .266.0427.336.128.069.0854.104.2.104.344 0 .1494-.035.2667-.104.352-.07.0854-.182.128-.336.128z" fill="#a2a2a4"/><path d="m113.722 58.2032c.243 0 .467.0347.672.104.205.0694.381.168.528.296.149.128.265.2827.348.464.083.1814.124.3827.124.604 0 .1814-.024.344-.072.488-.045.1414-.112.2667-.2.376-.085.1067-.189.1974-.312.272-.123.0747-.26.1347-.412.18.373.0987.653.264.84.496.189.232.284.5227.284.872 0 .264-.051.5014-.152.712-.099.2107-.235.3907-.408.54-.173.1467-.376.26-.608.34-.229.0774-.476.116-.74.116-.304 0-.564-.0373-.78-.112-.216-.0773-.399-.1826-.548-.316-.149-.1333-.272-.2906-.368-.472-.096-.184-.177-.3826-.244-.596l.304-.128c.056-.024.112-.036.168-.036.053 0 .1.012.14.036.043.0214.075.056.096.104.005.0107.011.0227.016.036.005.0107.011.0227.016.036.037.0774.083.1654.136.264.053.096.125.1867.216.272.091.0854.203.1574.336.216.136.0587.304.088.504.088s.375-.032.524-.096c.152-.0666.277-.152.376-.256.101-.104.177-.22.228-.348s.076-.2546.076-.38c0-.1546-.021-.296-.064-.424-.04-.128-.115-.2386-.224-.332-.107-.0933-.256-.1666-.448-.22-.189-.0533-.433-.08-.732-.08v-.516c.243-.0026.449-.0293.62-.08.173-.0506.315-.12.424-.208s.188-.1933.236-.316c.051-.1226.076-.2586.076-.408 0-.1653-.027-.3093-.08-.432-.051-.1226-.121-.224-.212-.304s-.199-.14-.324-.18c-.123-.04-.256-.06-.4-.06s-.277.0214-.4.064c-.123.0427-.232.1027-.328.18-.093.0747-.172.1654-.236.272-.064.104-.112.2174-.144.34-.021.0774-.053.1334-.096.168-.043.0347-.097.052-.164.052-.013 0-.028 0-.044 0-.013-.0026-.029-.0053-.048-.008l-.372-.064c.037-.2613.109-.492.216-.692.107-.2026.241-.372.404-.508.165-.136.353-.2386.564-.308.213-.072.443-.108.688-.108z" fill="#a2a2a4"/></svg>